<svg xmlns="http://www.w3.org/2000/svg" xmlns:xlink="http://www.w3.org/1999/xlink" width="110" zoomAndPan="magnify" viewBox="0 0 82.5 30.000001" height="40" preserveAspectRatio="xMidYMid meet" version="1.0"><defs><g/><clipPath id="c6d3b5cd24"><path d="M 45 9.25 L 49 9.25 L 49 11.441406 L 45 11.441406 Z M 45 9.25 " clip-rule="nonzero"/></clipPath><clipPath id="26d2cda449"><path d="M 46 9.25 L 50 9.25 L 50 11.441406 L 46 11.441406 Z M 46 9.25 " clip-rule="nonzero"/></clipPath><clipPath id="b4dba804f8"><path d="M 48 9.25 L 52 9.25 L 52 11.441406 L 48 11.441406 Z M 48 9.25 " clip-rule="nonzero"/></clipPath><clipPath id="625362e07c"><path d="M 49 9.25 L 53 9.25 L 53 11.441406 L 49 11.441406 Z M 49 9.25 " clip-rule="nonzero"/></clipPath><clipPath id="dec84d65f5"><path d="M 51 9.25 L 55 9.25 L 55 11.441406 L 51 11.441406 Z M 51 9.25 " clip-rule="nonzero"/></clipPath><clipPath id="24bacf65fb"><path d="M 52 9.25 L 56 9.25 L 56 11.441406 L 52 11.441406 Z M 52 9.25 " clip-rule="nonzero"/></clipPath><clipPath id="044d867df6"><path d="M 53 9.25 L 57 9.25 L 57 11.441406 L 53 11.441406 Z M 53 9.25 " clip-rule="nonzero"/></clipPath><clipPath id="787afd2454"><path d="M 54 9.25 L 58 9.25 L 58 11.441406 L 54 11.441406 Z M 54 9.25 " clip-rule="nonzero"/></clipPath><clipPath id="5fa5828a2f"><path d="M 56 9.25 L 59 9.25 L 59 11.441406 L 56 11.441406 Z M 56 9.25 " clip-rule="nonzero"/></clipPath><clipPath id="a66a45974a"><path d="M 57 9.25 L 60 9.25 L 60 11.441406 L 57 11.441406 Z M 57 9.25 " clip-rule="nonzero"/></clipPath><clipPath id="57656fcdb7"><path d="M 58 9.25 L 61 9.25 L 61 11.441406 L 58 11.441406 Z M 58 9.25 " clip-rule="nonzero"/></clipPath><clipPath id="1383b11432"><path d="M 59 9.25 L 62 9.25 L 62 11.441406 L 59 11.441406 Z M 59 9.25 " clip-rule="nonzero"/></clipPath><clipPath id="fa88b18709"><path d="M 59 9.25 L 63 9.25 L 63 11.441406 L 59 11.441406 Z M 59 9.25 " clip-rule="nonzero"/></clipPath><clipPath id="821a8bdae6"><path d="M 60 9.25 L 64 9.25 L 64 11.441406 L 60 11.441406 Z M 60 9.25 " clip-rule="nonzero"/></clipPath><clipPath id="a9c28b0bcb"><path d="M 61 9.25 L 65 9.25 L 65 11.441406 L 61 11.441406 Z M 61 9.25 " clip-rule="nonzero"/></clipPath><clipPath id="4ba462cc12"><path d="M 62 9.25 L 65 9.25 L 65 11.441406 L 62 11.441406 Z M 62 9.25 " clip-rule="nonzero"/></clipPath><clipPath id="34fc87d6da"><path d="M 63 9.25 L 66 9.25 L 66 11.441406 L 63 11.441406 Z M 63 9.25 " clip-rule="nonzero"/></clipPath><clipPath id="7198206c6b"><path d="M 63 9.25 L 67 9.25 L 67 11.441406 L 63 11.441406 Z M 63 9.25 " clip-rule="nonzero"/></clipPath><clipPath id="628be22221"><path d="M 64 9.25 L 68 9.25 L 68 11.441406 L 64 11.441406 Z M 64 9.25 " clip-rule="nonzero"/></clipPath><clipPath id="5eacace6c3"><path d="M 65 9.25 L 68 9.25 L 68 11.441406 L 65 11.441406 Z M 65 9.25 " clip-rule="nonzero"/></clipPath><clipPath id="899f7d112e"><path d="M 66 9.25 L 69 9.25 L 69 11.441406 L 66 11.441406 Z M 66 9.25 " clip-rule="nonzero"/></clipPath><clipPath id="aef5b9b40c"><path d="M 67 9.25 L 70 9.25 L 70 11.441406 L 67 11.441406 Z M 67 9.25 " clip-rule="nonzero"/></clipPath><clipPath id="481b668d2e"><path d="M 68 9.25 L 71 9.25 L 71 11.441406 L 68 11.441406 Z M 68 9.25 " clip-rule="nonzero"/></clipPath><clipPath id="1ed66a1177"><path d="M 69 9.25 L 72 9.25 L 72 11.441406 L 69 11.441406 Z M 69 9.25 " clip-rule="nonzero"/></clipPath><clipPath id="d5419c449e"><path d="M 70 9.25 L 73 9.25 L 73 11.441406 L 70 11.441406 Z M 70 9.25 " clip-rule="nonzero"/></clipPath><clipPath id="431c454900"><path d="M 71 9.25 L 73.425781 9.25 L 73.425781 11.441406 L 71 11.441406 Z M 71 9.25 " clip-rule="nonzero"/></clipPath></defs><g fill="#ffffff" fill-opacity="1"><g transform="translate(1.179206, 12.239013)"><g><path d="M 8.277344 -8.308594 L 1.257812 -4.792969 L 1.257812 -3.882812 L 8.277344 -0.335938 L 8.277344 -1.195312 L 2.070312 -4.328125 L 8.277344 -7.464844 Z M 8.277344 -8.308594 "/></g></g></g><g fill="#ffffff" fill-opacity="1"><g transform="translate(11.994378, 10.658703)"><g><path d="M 4.507812 0 L 5.230469 0 L 2.984375 -6.214844 L 2.246094 -6.214844 L 0 0 L 0.726562 0 L 1.234375 -1.449219 L 4 -1.449219 Z M 1.449219 -2.082031 L 2.621094 -5.429688 L 3.78125 -2.082031 Z M 1.449219 -2.082031 "/></g></g></g><g fill="#ffffff" fill-opacity="1"><g transform="translate(20.001841, 10.658703)"><g><path d="M 0.757812 0 L 2.457031 0 C 4.164062 0 5.5625 -1.386719 5.5625 -3.109375 C 5.5625 -4.828125 4.164062 -6.214844 2.457031 -6.214844 L 0.757812 -6.214844 Z M 1.410156 -0.664062 L 1.410156 -5.550781 L 2.445312 -5.550781 C 3.824219 -5.550781 4.898438 -4.507812 4.898438 -3.109375 C 4.898438 -1.710938 3.824219 -0.664062 2.445312 -0.664062 Z M 1.410156 -0.664062 "/></g></g></g><g fill="#ffffff" fill-opacity="1"><g transform="translate(28.848244, 10.658703)"><g><path d="M 4.507812 0 L 5.230469 0 L 2.984375 -6.214844 L 2.246094 -6.214844 L 0 0 L 0.726562 0 L 1.234375 -1.449219 L 4 -1.449219 Z M 1.449219 -2.082031 L 2.621094 -5.429688 L 3.78125 -2.082031 Z M 1.449219 -2.082031 "/></g></g></g><g fill="#ffffff" fill-opacity="1"><g transform="translate(36.855708, 10.658703)"><g><path d="M 6.234375 -6.214844 L 3.84375 -0.796875 L 1.460938 -6.214844 L 0.757812 -6.214844 L 0.757812 0 L 1.417969 0 L 1.417969 -4.910156 L 3.5625 0 L 4.113281 0 L 6.277344 -4.890625 L 6.277344 0 L 6.929688 0 L 6.929688 -6.214844 Z M 6.234375 -6.214844 "/></g></g></g><g fill="#6666ff" fill-opacity="1"><g transform="translate(19.791964, 19.879667)"><g><path d="M 4.199219 -5.566406 L 4.199219 -6.207031 L 0.808594 -6.207031 L 0.808594 0 L 1.46875 0 L 1.46875 -2.78125 L 3.847656 -2.78125 L 3.847656 -3.425781 L 1.46875 -3.425781 L 1.46875 -5.566406 Z M 4.199219 -5.566406 "/></g></g></g><g fill="#6666ff" fill-opacity="1"><g transform="translate(26.950452, 19.879667)"><g><path d="M 3.691406 0.0820312 C 5.460938 0.0820312 6.878906 -1.34375 6.878906 -3.101562 C 6.878906 -4.863281 5.460938 -6.289062 3.691406 -6.289062 C 1.933594 -6.289062 0.507812 -4.863281 0.507812 -3.101562 C 0.507812 -1.34375 1.933594 0.0820312 3.691406 0.0820312 Z M 3.691406 -0.578125 C 2.296875 -0.578125 1.167969 -1.695312 1.167969 -3.101562 C 1.167969 -4.511719 2.296875 -5.628906 3.691406 -5.628906 C 5.101562 -5.628906 6.21875 -4.511719 6.21875 -3.101562 C 6.21875 -1.695312 5.101562 -0.578125 3.691406 -0.578125 Z M 3.691406 -0.578125 "/></g></g></g><g fill="#6666ff" fill-opacity="1"><g transform="translate(37.119239, 19.879667)"><g><path d="M 3.269531 -2.835938 C 4.085938 -2.949219 4.707031 -3.632812 4.707031 -4.46875 C 4.707031 -5.441406 3.929688 -6.207031 2.980469 -6.207031 L 0.753906 -6.207031 L 0.753906 0 L 1.417969 0 L 1.417969 -2.804688 L 2.585938 -2.804688 L 4.34375 0 L 5.101562 0 Z M 1.417969 -3.433594 L 1.417969 -5.542969 L 2.9375 -5.542969 C 3.558594 -5.542969 4.042969 -5.109375 4.042969 -4.488281 C 4.042969 -3.859375 3.570312 -3.433594 2.9375 -3.433594 Z M 1.417969 -3.433594 "/></g></g></g><g fill="#6666ff" fill-opacity="1"><g transform="translate(45.084614, 19.879667)"><g><path d="M 3.714844 -3.289062 L 3.714844 -2.667969 L 6.207031 -2.667969 C 6.011719 -1.46875 4.976562 -0.578125 3.722656 -0.578125 C 2.328125 -0.578125 1.199219 -1.695312 1.199219 -3.101562 C 1.199219 -4.511719 2.328125 -5.628906 3.722656 -5.628906 C 4.664062 -5.628906 5.492188 -5.121094 5.917969 -4.355469 L 6.484375 -4.675781 C 5.949219 -5.636719 4.914062 -6.289062 3.722656 -6.289062 C 1.957031 -6.289062 0.539062 -4.863281 0.539062 -3.101562 C 0.539062 -1.34375 1.957031 0.0820312 3.722656 0.0820312 C 5.484375 0.0820312 6.910156 -1.34375 6.910156 -3.101562 L 6.910156 -3.289062 Z M 3.714844 -3.289062 "/></g></g></g><g fill="#6666ff" fill-opacity="1"><g transform="translate(55.294778, 19.879667)"><g><path d="M 4.5 0 L 5.222656 0 L 2.980469 -6.207031 L 2.246094 -6.207031 L 0 0 L 0.722656 0 L 1.230469 -1.449219 L 3.992188 -1.449219 Z M 1.449219 -2.078125 L 2.617188 -5.421875 L 3.777344 -2.078125 Z M 1.449219 -2.078125 "/></g></g></g><g fill="#6666ff" fill-opacity="1"><g transform="translate(63.291185, 19.879667)"><g><path d="M 3.691406 0.0820312 C 4.882812 0.0820312 5.917969 -0.570312 6.464844 -1.53125 L 5.894531 -1.851562 C 5.472656 -1.085938 4.644531 -0.578125 3.691406 -0.578125 C 2.296875 -0.578125 1.167969 -1.695312 1.167969 -3.101562 C 1.167969 -4.511719 2.296875 -5.628906 3.691406 -5.628906 C 4.644531 -5.628906 5.472656 -5.121094 5.894531 -4.355469 L 6.464844 -4.675781 C 5.917969 -5.636719 4.882812 -6.289062 3.691406 -6.289062 C 1.933594 -6.289062 0.507812 -4.863281 0.507812 -3.101562 C 0.507812 -1.34375 1.933594 0.0820312 3.691406 0.0820312 Z M 3.691406 0.0820312 "/></g></g></g><g fill="#ffffff" fill-opacity="1"><g transform="translate(71.543051, 21.354303)"><g><path d="M 1.257812 -8.320312 L 1.257812 -7.472656 L 7.472656 -4.335938 L 1.257812 -1.195312 L 1.257812 -0.335938 L 8.285156 -3.886719 L 8.285156 -4.796875 Z M 1.257812 -8.320312 "/></g></g></g><g clip-path="url(#c6d3b5cd24)"><path fill="#6666ff" d="M 48.199219 9.25 L 46.855469 9.25 L 45.070312 11.441406 L 46.414062 11.441406 Z M 48.199219 9.25 " fill-opacity="1" fill-rule="evenodd"/></g><g clip-path="url(#26d2cda449)"><path fill="#6666ff" d="M 48.585938 9.253906 C 49.019531 9.253906 49.445312 9.253906 49.882812 9.253906 C 49.285156 9.984375 48.703125 10.699219 48.105469 11.429688 C 47.671875 11.429688 47.246094 11.429688 46.808594 11.429688 C 47.40625 10.699219 47.988281 9.984375 48.585938 9.253906 Z M 48.585938 9.253906 " fill-opacity="1" fill-rule="evenodd"/></g><g clip-path="url(#b4dba804f8)"><path fill="#6666ff" d="M 50.167969 9.253906 C 50.582031 9.253906 50.996094 9.253906 51.421875 9.253906 C 50.828125 9.984375 50.242188 10.699219 49.648438 11.429688 C 49.234375 11.429688 48.820312 11.429688 48.394531 11.429688 C 48.988281 10.699219 49.574219 9.984375 50.167969 9.253906 Z M 50.167969 9.253906 " fill-opacity="1" fill-rule="evenodd"/></g><g clip-path="url(#625362e07c)"><path fill="#6666ff" d="M 51.644531 9.253906 C 52.046875 9.253906 52.453125 9.253906 52.847656 9.253906 C 52.25 9.984375 51.667969 10.699219 51.070312 11.429688 C 50.667969 11.429688 50.261719 11.429688 49.871094 11.429688 C 50.464844 10.699219 51.050781 9.984375 51.644531 9.253906 Z M 51.644531 9.253906 " fill-opacity="1" fill-rule="evenodd"/></g><g clip-path="url(#dec84d65f5)"><path fill="#6666ff" d="M 53.027344 9.253906 C 53.410156 9.253906 53.800781 9.253906 54.183594 9.253906 C 53.589844 9.984375 53.003906 10.699219 52.410156 11.429688 C 52.027344 11.429688 51.632812 11.429688 51.25 11.429688 C 51.847656 10.699219 52.429688 9.984375 53.027344 9.253906 Z M 53.027344 9.253906 " fill-opacity="1" fill-rule="evenodd"/></g><g clip-path="url(#24bacf65fb)"><path fill="#6666ff" d="M 54.324219 9.253906 C 54.695312 9.253906 55.066406 9.253906 55.4375 9.253906 C 54.84375 9.984375 54.257812 10.699219 53.664062 11.429688 C 53.292969 11.429688 52.921875 11.429688 52.546875 11.429688 C 53.144531 10.699219 53.726562 9.984375 54.324219 9.253906 Z M 54.324219 9.253906 " fill-opacity="1" fill-rule="evenodd"/></g><g clip-path="url(#044d867df6)"><path fill="#6666ff" d="M 55.542969 9.253906 C 55.90625 9.253906 56.257812 9.253906 56.617188 9.253906 C 56.023438 9.984375 55.4375 10.699219 54.84375 11.429688 C 54.480469 11.429688 54.132812 11.429688 53.769531 11.429688 C 54.367188 10.699219 54.949219 9.984375 55.542969 9.253906 Z M 55.542969 9.253906 " fill-opacity="1" fill-rule="evenodd"/></g><g clip-path="url(#787afd2454)"><path fill="#6666ff" d="M 56.691406 9.253906 C 57.03125 9.253906 57.382812 9.253906 57.722656 9.253906 C 57.128906 9.984375 56.542969 10.699219 55.949219 11.429688 C 55.609375 11.429688 55.257812 11.429688 54.917969 11.429688 C 55.511719 10.699219 56.097656 9.984375 56.691406 9.253906 Z M 56.691406 9.253906 " fill-opacity="1" fill-rule="evenodd"/></g><g clip-path="url(#5fa5828a2f)"><path fill="#6666ff" d="M 57.796875 9.253906 C 58.128906 9.253906 58.457031 9.253906 58.785156 9.253906 C 58.191406 9.984375 57.605469 10.699219 57.011719 11.429688 C 56.683594 11.429688 56.351562 11.429688 56.023438 11.429688 C 56.617188 10.699219 57.203125 9.984375 57.796875 9.253906 Z M 57.796875 9.253906 " fill-opacity="1" fill-rule="evenodd"/></g><g clip-path="url(#a66a45974a)"><path fill="#6666ff" d="M 58.839844 9.253906 C 59.15625 9.253906 59.464844 9.253906 59.785156 9.253906 C 59.191406 9.984375 58.605469 10.699219 58.011719 11.429688 C 57.691406 11.429688 57.382812 11.429688 57.0625 11.429688 C 57.660156 10.699219 58.242188 9.984375 58.839844 9.253906 Z M 58.839844 9.253906 " fill-opacity="1" fill-rule="evenodd"/></g><g clip-path="url(#57656fcdb7)"><path fill="#6666ff" d="M 59.828125 9.253906 C 60.125 9.253906 60.433594 9.253906 60.730469 9.253906 C 60.136719 9.984375 59.550781 10.699219 58.957031 11.429688 C 58.660156 11.429688 58.351562 11.429688 58.050781 11.429688 C 58.648438 10.699219 59.230469 9.984375 59.828125 9.253906 Z M 59.828125 9.253906 " fill-opacity="1" fill-rule="evenodd"/></g><g clip-path="url(#1383b11432)"><path fill="#6666ff" d="M 60.785156 9.253906 C 61.070312 9.253906 61.355469 9.253906 61.644531 9.253906 C 61.050781 9.984375 60.464844 10.699219 59.871094 11.429688 C 59.582031 11.429688 59.296875 11.429688 59.007812 11.429688 C 59.605469 10.699219 60.1875 9.984375 60.785156 9.253906 Z M 60.785156 9.253906 " fill-opacity="1" fill-rule="evenodd"/></g><g clip-path="url(#fa88b18709)"><path fill="#6666ff" d="M 61.699219 9.253906 C 61.972656 9.253906 62.238281 9.253906 62.515625 9.253906 C 61.921875 9.984375 61.335938 10.699219 60.742188 11.429688 C 60.464844 11.429688 60.199219 11.429688 59.921875 11.429688 C 60.519531 10.699219 61.101562 9.984375 61.699219 9.253906 Z M 61.699219 9.253906 " fill-opacity="1" fill-rule="evenodd"/></g><g clip-path="url(#821a8bdae6)"><path fill="#6666ff" d="M 62.570312 9.253906 C 62.824219 9.253906 63.078125 9.253906 63.34375 9.253906 C 62.75 9.984375 62.164062 10.699219 61.570312 11.429688 C 61.316406 11.429688 61.058594 11.429688 60.792969 11.429688 C 61.390625 10.699219 61.972656 9.984375 62.570312 9.253906 Z M 62.570312 9.253906 " fill-opacity="1" fill-rule="evenodd"/></g><g clip-path="url(#a9c28b0bcb)"><path fill="#6666ff" d="M 63.410156 9.253906 C 63.652344 9.253906 63.898438 9.253906 64.140625 9.253906 C 63.546875 9.984375 62.960938 10.699219 62.367188 11.429688 C 62.121094 11.429688 61.878906 11.429688 61.632812 11.429688 C 62.230469 10.699219 62.8125 9.984375 63.410156 9.253906 Z M 63.410156 9.253906 " fill-opacity="1" fill-rule="evenodd"/></g><g clip-path="url(#4ba462cc12)"><path fill="#6666ff" d="M 64.214844 9.253906 C 64.449219 9.253906 64.671875 9.253906 64.90625 9.253906 C 64.3125 9.984375 63.726562 10.699219 63.132812 11.429688 C 62.898438 11.429688 62.675781 11.429688 62.441406 11.429688 C 63.035156 10.699219 63.621094 9.984375 64.214844 9.253906 Z M 64.214844 9.253906 " fill-opacity="1" fill-rule="evenodd"/></g><g clip-path="url(#34fc87d6da)"><path fill="#6666ff" d="M 65.003906 9.253906 C 65.214844 9.253906 65.425781 9.253906 65.640625 9.253906 C 65.042969 9.984375 64.460938 10.699219 63.863281 11.429688 C 63.652344 11.429688 63.441406 11.429688 63.226562 11.429688 C 63.824219 10.699219 64.40625 9.984375 65.003906 9.253906 Z M 65.003906 9.253906 " fill-opacity="1" fill-rule="evenodd"/></g><g clip-path="url(#7198206c6b)"><path fill="#6666ff" d="M 65.757812 9.253906 C 65.957031 9.253906 66.160156 9.253906 66.351562 9.253906 C 65.757812 9.984375 65.171875 10.699219 64.578125 11.429688 C 64.375 11.429688 64.171875 11.429688 63.980469 11.429688 C 64.578125 10.699219 65.160156 9.984375 65.757812 9.253906 Z M 65.757812 9.253906 " fill-opacity="1" fill-rule="evenodd"/></g><g clip-path="url(#628be22221)"><path fill="#6666ff" d="M 66.480469 9.253906 C 66.660156 9.253906 66.851562 9.253906 67.03125 9.253906 C 66.4375 9.984375 65.851562 10.699219 65.257812 11.429688 C 65.078125 11.429688 64.886719 11.429688 64.703125 11.429688 C 65.300781 10.699219 65.882812 9.984375 66.480469 9.253906 Z M 66.480469 9.253906 " fill-opacity="1" fill-rule="evenodd"/></g><g clip-path="url(#5eacace6c3)"><path fill="#6666ff" d="M 67.191406 9.253906 C 67.359375 9.253906 67.53125 9.253906 67.703125 9.253906 C 67.105469 9.984375 66.523438 10.699219 65.925781 11.429688 C 65.757812 11.429688 65.585938 11.429688 65.417969 11.429688 C 66.011719 10.699219 66.597656 9.984375 67.191406 9.253906 Z M 67.191406 9.253906 " fill-opacity="1" fill-rule="evenodd"/></g><g clip-path="url(#899f7d112e)"><path fill="#6666ff" d="M 67.871094 9.253906 C 68.03125 9.253906 68.179688 9.253906 68.339844 9.253906 C 67.742188 9.984375 67.160156 10.699219 66.5625 11.429688 C 66.40625 11.429688 66.257812 11.429688 66.097656 11.429688 C 66.691406 10.699219 67.277344 9.984375 67.871094 9.253906 Z M 67.871094 9.253906 " fill-opacity="1" fill-rule="evenodd"/><path fill="#6666ff" d="M 68.539062 9.253906 C 68.679688 9.253906 68.828125 9.253906 68.964844 9.253906 C 68.371094 9.984375 67.785156 10.699219 67.191406 11.429688 C 67.054688 11.429688 66.902344 11.429688 66.765625 11.429688 C 67.359375 10.699219 67.945312 9.984375 68.539062 9.253906 Z M 68.539062 9.253906 " fill-opacity="1" fill-rule="evenodd"/></g><g clip-path="url(#aef5b9b40c)"><path fill="#6666ff" d="M 69.179688 9.253906 C 69.304688 9.253906 69.433594 9.253906 69.5625 9.253906 C 68.964844 9.984375 68.382812 10.699219 67.785156 11.429688 C 67.660156 11.429688 67.53125 11.429688 67.402344 11.429688 C 68 10.699219 68.582031 9.984375 69.179688 9.253906 Z M 69.179688 9.253906 " fill-opacity="1" fill-rule="evenodd"/></g><g clip-path="url(#481b668d2e)"><path fill="#6666ff" d="M 69.804688 9.253906 C 69.921875 9.253906 70.027344 9.253906 70.144531 9.253906 C 69.550781 9.984375 68.964844 10.699219 68.371094 11.429688 C 68.253906 11.429688 68.148438 11.429688 68.03125 11.429688 C 68.625 10.699219 69.210938 9.984375 69.804688 9.253906 Z M 69.804688 9.253906 " fill-opacity="1" fill-rule="evenodd"/><path fill="#6666ff" d="M 70.410156 9.253906 C 70.507812 9.253906 70.613281 9.253906 70.707031 9.253906 C 70.113281 9.984375 69.527344 10.699219 68.933594 11.429688 C 68.839844 11.429688 68.730469 11.429688 68.636719 11.429688 C 69.230469 10.699219 69.816406 9.984375 70.410156 9.253906 Z M 70.410156 9.253906 " fill-opacity="1" fill-rule="evenodd"/></g><g clip-path="url(#1ed66a1177)"><path fill="#6666ff" d="M 71.007812 9.253906 C 71.089844 9.253906 71.175781 9.253906 71.261719 9.253906 C 70.664062 9.984375 70.082031 10.699219 69.488281 11.429688 C 69.402344 11.429688 69.316406 11.429688 69.230469 11.429688 C 69.828125 10.699219 70.410156 9.984375 71.007812 9.253906 Z M 71.007812 9.253906 " fill-opacity="1" fill-rule="evenodd"/><path fill="#6666ff" d="M 71.578125 9.253906 C 71.652344 9.253906 71.71875 9.253906 71.792969 9.253906 C 71.199219 9.984375 70.613281 10.699219 70.019531 11.429688 C 69.945312 11.429688 69.878906 11.429688 69.804688 11.429688 C 70.398438 10.699219 70.984375 9.984375 71.578125 9.253906 Z M 71.578125 9.253906 " fill-opacity="1" fill-rule="evenodd"/></g><g clip-path="url(#d5419c449e)"><path fill="#6666ff" d="M 72.144531 9.253906 C 72.195312 9.253906 72.25 9.253906 72.3125 9.253906 C 71.71875 9.984375 71.132812 10.699219 70.539062 11.429688 C 70.484375 11.429688 70.433594 11.429688 70.367188 11.429688 C 70.964844 10.699219 71.546875 9.984375 72.144531 9.253906 Z M 72.144531 9.253906 " fill-opacity="1" fill-rule="evenodd"/><path fill="#6666ff" d="M 72.695312 9.253906 C 72.738281 9.253906 72.78125 9.253906 72.824219 9.253906 C 72.226562 9.984375 71.644531 10.699219 71.046875 11.429688 C 71.007812 11.429688 70.964844 11.429688 70.921875 11.429688 C 71.515625 10.699219 72.101562 9.984375 72.695312 9.253906 Z M 72.695312 9.253906 " fill-opacity="1" fill-rule="evenodd"/></g><g clip-path="url(#431c454900)"><path fill="#6666ff" d="M 73.304688 9.25 L 73.226562 9.25 L 71.441406 11.441406 L 71.519531 11.441406 Z M 73.304688 9.25 " fill-opacity="1" fill-rule="evenodd"/></g></svg>