<svg xmlns="http://www.w3.org/2000/svg" xmlns:xlink="http://www.w3.org/1999/xlink" width="110" zoomAndPan="magnify" viewBox="0 0 82.5 30.000001" height="40" preserveAspectRatio="xMidYMid meet" version="1.0"><defs><g/><clipPath id="3e71123d90"><path d="M 45 8.28125 L 49 8.28125 L 49 10.472656 L 45 10.472656 Z M 45 8.28125 " clip-rule="nonzero"/></clipPath><clipPath id="a1d288468a"><path d="M 47 8.28125 L 51 8.28125 L 51 10.472656 L 47 10.472656 Z M 47 8.28125 " clip-rule="nonzero"/></clipPath><clipPath id="af78418724"><path d="M 48 8.28125 L 53 8.28125 L 53 10.472656 L 48 10.472656 Z M 48 8.28125 " clip-rule="nonzero"/></clipPath><clipPath id="f79b9feaa2"><path d="M 50 8.28125 L 54 8.28125 L 54 10.472656 L 50 10.472656 Z M 50 8.28125 " clip-rule="nonzero"/></clipPath><clipPath id="fc7ef5079e"><path d="M 52 8.28125 L 56 8.28125 L 56 10.472656 L 52 10.472656 Z M 52 8.28125 " clip-rule="nonzero"/></clipPath><clipPath id="6b217d4c5e"><path d="M 53 8.28125 L 57 8.28125 L 57 10.472656 L 53 10.472656 Z M 53 8.28125 " clip-rule="nonzero"/></clipPath><clipPath id="affebb7bbb"><path d="M 54 8.28125 L 59 8.28125 L 59 10.472656 L 54 10.472656 Z M 54 8.28125 " clip-rule="nonzero"/></clipPath><clipPath id="ebdf07485d"><path d="M 56 8.28125 L 60 8.28125 L 60 10.472656 L 56 10.472656 Z M 56 8.28125 " clip-rule="nonzero"/></clipPath><clipPath id="c47d37c8db"><path d="M 57 8.28125 L 61 8.28125 L 61 10.472656 L 57 10.472656 Z M 57 8.28125 " clip-rule="nonzero"/></clipPath><clipPath id="11d1f932f2"><path d="M 58 8.28125 L 62 8.28125 L 62 10.472656 L 58 10.472656 Z M 58 8.28125 " clip-rule="nonzero"/></clipPath><clipPath id="ec9088f785"><path d="M 59 8.28125 L 63 8.28125 L 63 10.472656 L 59 10.472656 Z M 59 8.28125 " clip-rule="nonzero"/></clipPath><clipPath id="016344e0f4"><path d="M 60 8.28125 L 64 8.28125 L 64 10.472656 L 60 10.472656 Z M 60 8.28125 " clip-rule="nonzero"/></clipPath><clipPath id="2783c67aee"><path d="M 61 8.28125 L 65 8.28125 L 65 10.472656 L 61 10.472656 Z M 61 8.28125 " clip-rule="nonzero"/></clipPath><clipPath id="b22f8dc893"><path d="M 62 8.28125 L 66 8.28125 L 66 10.472656 L 62 10.472656 Z M 62 8.28125 " clip-rule="nonzero"/></clipPath><clipPath id="919daebab5"><path d="M 63 8.28125 L 67 8.28125 L 67 10.472656 L 63 10.472656 Z M 63 8.28125 " clip-rule="nonzero"/></clipPath><clipPath id="136b9ae1a7"><path d="M 64 8.28125 L 68 8.28125 L 68 10.472656 L 64 10.472656 Z M 64 8.28125 " clip-rule="nonzero"/></clipPath><clipPath id="e06cb2e00a"><path d="M 65 8.28125 L 69 8.28125 L 69 10.472656 L 65 10.472656 Z M 65 8.28125 " clip-rule="nonzero"/></clipPath><clipPath id="7eac6ac60e"><path d="M 66 8.28125 L 70 8.28125 L 70 10.472656 L 66 10.472656 Z M 66 8.28125 " clip-rule="nonzero"/></clipPath><clipPath id="d86db0e24d"><path d="M 67 8.28125 L 70 8.28125 L 70 10.472656 L 67 10.472656 Z M 67 8.28125 " clip-rule="nonzero"/></clipPath><clipPath id="881af410cf"><path d="M 68 8.28125 L 71 8.28125 L 71 10.472656 L 68 10.472656 Z M 68 8.28125 " clip-rule="nonzero"/></clipPath><clipPath id="145c1a2340"><path d="M 68 8.28125 L 72 8.28125 L 72 10.472656 L 68 10.472656 Z M 68 8.28125 " clip-rule="nonzero"/></clipPath><clipPath id="80b4c8e956"><path d="M 69 8.28125 L 73 8.28125 L 73 10.472656 L 69 10.472656 Z M 69 8.28125 " clip-rule="nonzero"/></clipPath><clipPath id="54762fd07a"><path d="M 70 8.28125 L 73 8.28125 L 73 10.472656 L 70 10.472656 Z M 70 8.28125 " clip-rule="nonzero"/></clipPath><clipPath id="fd2565fdb3"><path d="M 71 8.28125 L 74 8.28125 L 74 10.472656 L 71 10.472656 Z M 71 8.28125 " clip-rule="nonzero"/></clipPath><clipPath id="0af737993c"><path d="M 71 8.28125 L 75 8.28125 L 75 10.472656 L 71 10.472656 Z M 71 8.28125 " clip-rule="nonzero"/></clipPath><clipPath id="dda6712acf"><path d="M 72 8.28125 L 75 8.28125 L 75 10.472656 L 72 10.472656 Z M 72 8.28125 " clip-rule="nonzero"/></clipPath><clipPath id="48eb309236"><path d="M 73 8.28125 L 76 8.28125 L 76 10.472656 L 73 10.472656 Z M 73 8.28125 " clip-rule="nonzero"/></clipPath><clipPath id="fb01683ea1"><path d="M 74 8.28125 L 77 8.28125 L 77 10.472656 L 74 10.472656 Z M 74 8.28125 " clip-rule="nonzero"/></clipPath></defs><g fill="#000000" fill-opacity="1"><g transform="translate(1.179768, 11.824799)"><g><path d="M 8.277344 -8.308594 L 1.257812 -4.792969 L 1.257812 -3.882812 L 8.277344 -0.335938 L 8.277344 -1.195312 L 2.070312 -4.328125 L 8.277344 -7.464844 Z M 8.277344 -8.308594 "/></g></g></g><g fill="#000000" fill-opacity="1"><g transform="translate(11.989326, 10.211757)"><g><path d="M 4.507812 0 L 5.234375 0 L 2.984375 -6.21875 L 2.25 -6.21875 L 0 0 L 0.726562 0 L 1.234375 -1.449219 L 4 -1.449219 Z M 1.449219 -2.082031 L 2.621094 -5.429688 L 3.78125 -2.082031 Z M 1.449219 -2.082031 "/></g></g></g><g fill="#000000" fill-opacity="1"><g transform="translate(19.999264, 10.211757)"><g><path d="M 0.757812 0 L 2.457031 0 C 4.164062 0 5.5625 -1.386719 5.5625 -3.109375 C 5.5625 -4.828125 4.164062 -6.21875 2.457031 -6.21875 L 0.757812 -6.21875 Z M 1.410156 -0.664062 L 1.410156 -5.554688 L 2.445312 -5.554688 C 3.824219 -5.554688 4.902344 -4.507812 4.902344 -3.109375 C 4.902344 -1.710938 3.824219 -0.664062 2.445312 -0.664062 Z M 1.410156 -0.664062 "/></g></g></g><g fill="#000000" fill-opacity="1"><g transform="translate(28.84853, 10.211757)"><g><path d="M 4.507812 0 L 5.234375 0 L 2.984375 -6.21875 L 2.25 -6.21875 L 0 0 L 0.726562 0 L 1.234375 -1.449219 L 4 -1.449219 Z M 1.449219 -2.082031 L 2.621094 -5.429688 L 3.78125 -2.082031 Z M 1.449219 -2.082031 "/></g></g></g><g fill="#000000" fill-opacity="1"><g transform="translate(36.858469, 10.211757)"><g><path d="M 6.238281 -6.21875 L 3.84375 -0.796875 L 1.460938 -6.21875 L 0.757812 -6.21875 L 0.757812 0 L 1.417969 0 L 1.417969 -4.910156 L 3.566406 0 L 4.113281 0 L 6.28125 -4.890625 L 6.28125 0 L 6.933594 0 L 6.933594 -6.21875 Z M 6.238281 -6.21875 "/></g></g></g><g fill="#6666ff" fill-opacity="1"><g transform="translate(19.791964, 19.879667)"><g><path d="M 4.199219 -5.566406 L 4.199219 -6.207031 L 0.808594 -6.207031 L 0.808594 0 L 1.46875 0 L 1.46875 -2.78125 L 3.847656 -2.78125 L 3.847656 -3.425781 L 1.46875 -3.425781 L 1.46875 -5.566406 Z M 4.199219 -5.566406 "/></g></g></g><g fill="#6666ff" fill-opacity="1"><g transform="translate(26.950452, 19.879667)"><g><path d="M 3.691406 0.0820312 C 5.460938 0.0820312 6.878906 -1.34375 6.878906 -3.101562 C 6.878906 -4.863281 5.460938 -6.289062 3.691406 -6.289062 C 1.933594 -6.289062 0.507812 -4.863281 0.507812 -3.101562 C 0.507812 -1.34375 1.933594 0.0820312 3.691406 0.0820312 Z M 3.691406 -0.578125 C 2.296875 -0.578125 1.167969 -1.695312 1.167969 -3.101562 C 1.167969 -4.511719 2.296875 -5.628906 3.691406 -5.628906 C 5.101562 -5.628906 6.21875 -4.511719 6.21875 -3.101562 C 6.21875 -1.695312 5.101562 -0.578125 3.691406 -0.578125 Z M 3.691406 -0.578125 "/></g></g></g><g fill="#6666ff" fill-opacity="1"><g transform="translate(37.119239, 19.879667)"><g><path d="M 3.269531 -2.835938 C 4.085938 -2.949219 4.707031 -3.632812 4.707031 -4.46875 C 4.707031 -5.441406 3.929688 -6.207031 2.980469 -6.207031 L 0.753906 -6.207031 L 0.753906 0 L 1.417969 0 L 1.417969 -2.804688 L 2.585938 -2.804688 L 4.34375 0 L 5.101562 0 Z M 1.417969 -3.433594 L 1.417969 -5.542969 L 2.9375 -5.542969 C 3.558594 -5.542969 4.042969 -5.109375 4.042969 -4.488281 C 4.042969 -3.859375 3.570312 -3.433594 2.9375 -3.433594 Z M 1.417969 -3.433594 "/></g></g></g><g fill="#6666ff" fill-opacity="1"><g transform="translate(45.084614, 19.879667)"><g><path d="M 3.714844 -3.289062 L 3.714844 -2.667969 L 6.207031 -2.667969 C 6.011719 -1.46875 4.976562 -0.578125 3.722656 -0.578125 C 2.328125 -0.578125 1.199219 -1.695312 1.199219 -3.101562 C 1.199219 -4.511719 2.328125 -5.628906 3.722656 -5.628906 C 4.664062 -5.628906 5.492188 -5.121094 5.917969 -4.355469 L 6.484375 -4.675781 C 5.949219 -5.636719 4.914062 -6.289062 3.722656 -6.289062 C 1.957031 -6.289062 0.539062 -4.863281 0.539062 -3.101562 C 0.539062 -1.34375 1.957031 0.0820312 3.722656 0.0820312 C 5.484375 0.0820312 6.910156 -1.34375 6.910156 -3.101562 L 6.910156 -3.289062 Z M 3.714844 -3.289062 "/></g></g></g><g fill="#6666ff" fill-opacity="1"><g transform="translate(55.294778, 19.879667)"><g><path d="M 4.5 0 L 5.222656 0 L 2.980469 -6.207031 L 2.246094 -6.207031 L 0 0 L 0.722656 0 L 1.230469 -1.449219 L 3.992188 -1.449219 Z M 1.449219 -2.078125 L 2.617188 -5.421875 L 3.777344 -2.078125 Z M 1.449219 -2.078125 "/></g></g></g><g fill="#6666ff" fill-opacity="1"><g transform="translate(63.291185, 19.879667)"><g><path d="M 3.691406 0.0820312 C 4.882812 0.0820312 5.917969 -0.570312 6.464844 -1.53125 L 5.894531 -1.851562 C 5.472656 -1.085938 4.644531 -0.578125 3.691406 -0.578125 C 2.296875 -0.578125 1.167969 -1.695312 1.167969 -3.101562 C 1.167969 -4.511719 2.296875 -5.628906 3.691406 -5.628906 C 4.644531 -5.628906 5.472656 -5.121094 5.894531 -4.355469 L 6.464844 -4.675781 C 5.917969 -5.636719 4.882812 -6.289062 3.691406 -6.289062 C 1.933594 -6.289062 0.507812 -4.863281 0.507812 -3.101562 C 0.507812 -1.34375 1.933594 0.0820312 3.691406 0.0820312 Z M 3.691406 0.0820312 "/></g></g></g><g fill="#000000" fill-opacity="1"><g transform="translate(71.543051, 21.354303)"><g><path d="M 1.257812 -8.320312 L 1.257812 -7.472656 L 7.472656 -4.335938 L 1.257812 -1.195312 L 1.257812 -0.335938 L 8.285156 -3.886719 L 8.285156 -4.796875 Z M 1.257812 -8.320312 "/></g></g></g><g clip-path="url(#3e71123d90)"><path fill="#6666ff" d="M 48.589844 8.28125 L 47.070312 8.28125 L 45.050781 10.472656 L 46.570312 10.472656 Z M 48.589844 8.28125 " fill-opacity="1" fill-rule="evenodd"/></g><g clip-path="url(#a1d288468a)"><path fill="#6666ff" d="M 49.023438 8.289062 C 49.515625 8.289062 49.996094 8.289062 50.488281 8.289062 C 49.816406 9.015625 49.15625 9.734375 48.484375 10.460938 C 47.992188 10.460938 47.511719 10.460938 47.015625 10.460938 C 47.691406 9.734375 48.351562 9.015625 49.023438 8.289062 Z M 49.023438 8.289062 " fill-opacity="1" fill-rule="evenodd"/></g><g clip-path="url(#af78418724)"><path fill="#6666ff" d="M 50.8125 8.289062 C 51.28125 8.289062 51.75 8.289062 52.230469 8.289062 C 51.558594 9.015625 50.898438 9.734375 50.226562 10.460938 C 49.757812 10.460938 49.289062 10.460938 48.808594 10.460938 C 49.480469 9.734375 50.140625 9.015625 50.8125 8.289062 Z M 50.8125 8.289062 " fill-opacity="1" fill-rule="evenodd"/></g><g clip-path="url(#f79b9feaa2)"><path fill="#6666ff" d="M 52.484375 8.289062 C 52.941406 8.289062 53.398438 8.289062 53.84375 8.289062 C 53.167969 9.015625 52.507812 9.734375 51.835938 10.460938 C 51.378906 10.460938 50.921875 10.460938 50.476562 10.460938 C 51.152344 9.734375 51.8125 9.015625 52.484375 8.289062 Z M 52.484375 8.289062 " fill-opacity="1" fill-rule="evenodd"/></g><g clip-path="url(#fc7ef5079e)"><path fill="#6666ff" d="M 54.046875 8.289062 C 54.480469 8.289062 54.921875 8.289062 55.355469 8.289062 C 54.683594 9.015625 54.023438 9.734375 53.347656 10.460938 C 52.917969 10.460938 52.472656 10.460938 52.039062 10.460938 C 52.710938 9.734375 53.375 9.015625 54.046875 8.289062 Z M 54.046875 8.289062 " fill-opacity="1" fill-rule="evenodd"/></g><g clip-path="url(#6b217d4c5e)"><path fill="#6666ff" d="M 55.511719 8.289062 C 55.933594 8.289062 56.351562 8.289062 56.773438 8.289062 C 56.101562 9.015625 55.441406 9.734375 54.765625 10.460938 C 54.347656 10.460938 53.925781 10.460938 53.503906 10.460938 C 54.179688 9.734375 54.839844 9.015625 55.511719 8.289062 Z M 55.511719 8.289062 " fill-opacity="1" fill-rule="evenodd"/></g><g clip-path="url(#affebb7bbb)"><path fill="#6666ff" d="M 56.894531 8.289062 C 57.300781 8.289062 57.699219 8.289062 58.109375 8.289062 C 57.433594 9.015625 56.773438 9.734375 56.101562 10.460938 C 55.691406 10.460938 55.296875 10.460938 54.886719 10.460938 C 55.558594 9.734375 56.222656 9.015625 56.894531 8.289062 Z M 56.894531 8.289062 " fill-opacity="1" fill-rule="evenodd"/></g><g clip-path="url(#ebdf07485d)"><path fill="#6666ff" d="M 58.191406 8.289062 C 58.574219 8.289062 58.972656 8.289062 59.355469 8.289062 C 58.683594 9.015625 58.023438 9.734375 57.351562 10.460938 C 56.964844 10.460938 56.570312 10.460938 56.183594 10.460938 C 56.859375 9.734375 57.519531 9.015625 58.191406 8.289062 Z M 58.191406 8.289062 " fill-opacity="1" fill-rule="evenodd"/></g><g clip-path="url(#c47d37c8db)"><path fill="#6666ff" d="M 59.441406 8.289062 C 59.8125 8.289062 60.1875 8.289062 60.558594 8.289062 C 59.886719 9.015625 59.226562 9.734375 58.550781 10.460938 C 58.179688 10.460938 57.808594 10.460938 57.433594 10.460938 C 58.109375 9.734375 58.769531 9.015625 59.441406 8.289062 Z M 59.441406 8.289062 " fill-opacity="1" fill-rule="evenodd"/></g><g clip-path="url(#11d1f932f2)"><path fill="#6666ff" d="M 60.617188 8.289062 C 60.980469 8.289062 61.328125 8.289062 61.6875 8.289062 C 61.015625 9.015625 60.355469 9.734375 59.679688 10.460938 C 59.320312 10.460938 58.972656 10.460938 58.613281 10.460938 C 59.285156 9.734375 59.945312 9.015625 60.617188 8.289062 Z M 60.617188 8.289062 " fill-opacity="1" fill-rule="evenodd"/></g><g clip-path="url(#ec9088f785)"><path fill="#6666ff" d="M 61.734375 8.289062 C 62.074219 8.289062 62.421875 8.289062 62.757812 8.289062 C 62.085938 9.015625 61.421875 9.734375 60.75 10.460938 C 60.414062 10.460938 60.066406 10.460938 59.730469 10.460938 C 60.402344 9.734375 61.0625 9.015625 61.734375 8.289062 Z M 61.734375 8.289062 " fill-opacity="1" fill-rule="evenodd"/></g><g clip-path="url(#016344e0f4)"><path fill="#6666ff" d="M 62.816406 8.289062 C 63.140625 8.289062 63.464844 8.289062 63.789062 8.289062 C 63.117188 9.015625 62.457031 9.734375 61.785156 10.460938 C 61.460938 10.460938 61.136719 10.460938 60.8125 10.460938 C 61.484375 9.734375 62.144531 9.015625 62.816406 8.289062 Z M 62.816406 8.289062 " fill-opacity="1" fill-rule="evenodd"/></g><g clip-path="url(#2783c67aee)"><path fill="#6666ff" d="M 63.851562 8.289062 C 64.164062 8.289062 64.464844 8.289062 64.777344 8.289062 C 64.101562 9.015625 63.441406 9.734375 62.769531 10.460938 C 62.457031 10.460938 62.15625 10.460938 61.84375 10.460938 C 62.515625 9.734375 63.179688 9.015625 63.851562 8.289062 Z M 63.851562 8.289062 " fill-opacity="1" fill-rule="evenodd"/></g><g clip-path="url(#b22f8dc893)"><path fill="#6666ff" d="M 64.835938 8.289062 C 65.125 8.289062 65.414062 8.289062 65.714844 8.289062 C 65.039062 9.015625 64.378906 9.734375 63.707031 10.460938 C 63.417969 10.460938 63.128906 10.460938 62.828125 10.460938 C 63.503906 9.734375 64.164062 9.015625 64.835938 8.289062 Z M 64.835938 8.289062 " fill-opacity="1" fill-rule="evenodd"/></g><g clip-path="url(#919daebab5)"><path fill="#6666ff" d="M 65.785156 8.289062 C 66.0625 8.289062 66.339844 8.289062 66.613281 8.289062 C 65.941406 9.015625 65.28125 9.734375 64.609375 10.460938 C 64.332031 10.460938 64.054688 10.460938 63.777344 10.460938 C 64.453125 9.734375 65.113281 9.015625 65.785156 8.289062 Z M 65.785156 8.289062 " fill-opacity="1" fill-rule="evenodd"/></g><g clip-path="url(#136b9ae1a7)"><path fill="#6666ff" d="M 66.699219 8.289062 C 66.964844 8.289062 67.214844 8.289062 67.480469 8.289062 C 66.808594 9.015625 66.144531 9.734375 65.472656 10.460938 C 65.207031 10.460938 64.957031 10.460938 64.691406 10.460938 C 65.363281 9.734375 66.027344 9.015625 66.699219 8.289062 Z M 66.699219 8.289062 " fill-opacity="1" fill-rule="evenodd"/></g><g clip-path="url(#e06cb2e00a)"><path fill="#6666ff" d="M 67.585938 8.289062 C 67.828125 8.289062 68.066406 8.289062 68.308594 8.289062 C 67.636719 9.015625 66.976562 9.734375 66.300781 10.460938 C 66.0625 10.460938 65.820312 10.460938 65.582031 10.460938 C 66.253906 9.734375 66.914062 9.015625 67.585938 8.289062 Z M 67.585938 8.289062 " fill-opacity="1" fill-rule="evenodd"/></g><g clip-path="url(#7eac6ac60e)"><path fill="#6666ff" d="M 68.441406 8.289062 C 68.667969 8.289062 68.898438 8.289062 69.113281 8.289062 C 68.441406 9.015625 67.78125 9.734375 67.105469 10.460938 C 66.878906 10.460938 66.652344 10.460938 66.433594 10.460938 C 67.105469 9.734375 67.769531 9.015625 68.441406 8.289062 Z M 68.441406 8.289062 " fill-opacity="1" fill-rule="evenodd"/></g><g clip-path="url(#d86db0e24d)"><path fill="#6666ff" d="M 69.257812 8.289062 C 69.460938 8.289062 69.679688 8.289062 69.882812 8.289062 C 69.210938 9.015625 68.550781 9.734375 67.875 10.460938 C 67.671875 10.460938 67.457031 10.460938 67.25 10.460938 C 67.925781 9.734375 68.585938 9.015625 69.257812 8.289062 Z M 69.257812 8.289062 " fill-opacity="1" fill-rule="evenodd"/></g><g clip-path="url(#881af410cf)"><path fill="#6666ff" d="M 70.0625 8.289062 C 70.253906 8.289062 70.449219 8.289062 70.640625 8.289062 C 69.964844 9.015625 69.304688 9.734375 68.632812 10.460938 C 68.441406 10.460938 68.25 10.460938 68.054688 10.460938 C 68.730469 9.734375 69.390625 9.015625 70.0625 8.289062 Z M 70.0625 8.289062 " fill-opacity="1" fill-rule="evenodd"/></g><g clip-path="url(#145c1a2340)"><path fill="#6666ff" d="M 70.832031 8.289062 C 71.011719 8.289062 71.179688 8.289062 71.359375 8.289062 C 70.6875 9.015625 70.027344 9.734375 69.355469 10.460938 C 69.171875 10.460938 69.003906 10.460938 68.824219 10.460938 C 69.5 9.734375 70.160156 9.015625 70.832031 8.289062 Z M 70.832031 8.289062 " fill-opacity="1" fill-rule="evenodd"/></g><g clip-path="url(#80b4c8e956)"><path fill="#6666ff" d="M 71.589844 8.289062 C 71.746094 8.289062 71.914062 8.289062 72.070312 8.289062 C 71.398438 9.015625 70.734375 9.734375 70.0625 10.460938 C 69.90625 10.460938 69.738281 10.460938 69.582031 10.460938 C 70.253906 9.734375 70.914062 9.015625 71.589844 8.289062 Z M 71.589844 8.289062 " fill-opacity="1" fill-rule="evenodd"/></g><g clip-path="url(#54762fd07a)"><path fill="#6666ff" d="M 72.308594 8.289062 C 72.453125 8.289062 72.597656 8.289062 72.742188 8.289062 C 72.070312 9.015625 71.410156 9.734375 70.734375 10.460938 C 70.589844 10.460938 70.449219 10.460938 70.304688 10.460938 C 70.976562 9.734375 71.636719 9.015625 72.308594 8.289062 Z M 72.308594 8.289062 " fill-opacity="1" fill-rule="evenodd"/></g><g clip-path="url(#fd2565fdb3)"><path fill="#6666ff" d="M 73.019531 8.289062 C 73.152344 8.289062 73.269531 8.289062 73.402344 8.289062 C 72.730469 9.015625 72.070312 9.734375 71.398438 10.460938 C 71.265625 10.460938 71.144531 10.460938 71.011719 10.460938 C 71.683594 9.734375 72.347656 9.015625 73.019531 8.289062 Z M 73.019531 8.289062 " fill-opacity="1" fill-rule="evenodd"/></g><g clip-path="url(#0af737993c)"><path fill="#6666ff" d="M 73.703125 8.289062 C 73.8125 8.289062 73.933594 8.289062 74.039062 8.289062 C 73.367188 9.015625 72.707031 9.734375 72.035156 10.460938 C 71.925781 10.460938 71.804688 10.460938 71.695312 10.460938 C 72.371094 9.734375 73.03125 9.015625 73.703125 8.289062 Z M 73.703125 8.289062 " fill-opacity="1" fill-rule="evenodd"/></g><g clip-path="url(#dda6712acf)"><path fill="#6666ff" d="M 74.375 8.289062 C 74.472656 8.289062 74.570312 8.289062 74.664062 8.289062 C 73.992188 9.015625 73.332031 9.734375 72.660156 10.460938 C 72.5625 10.460938 72.464844 10.460938 72.371094 10.460938 C 73.042969 9.734375 73.703125 9.015625 74.375 8.289062 Z M 74.375 8.289062 " fill-opacity="1" fill-rule="evenodd"/></g><g clip-path="url(#48eb309236)"><path fill="#6666ff" d="M 75.023438 8.289062 C 75.109375 8.289062 75.179688 8.289062 75.265625 8.289062 C 74.59375 9.015625 73.933594 9.734375 73.257812 10.460938 C 73.175781 10.460938 73.101562 10.460938 73.019531 10.460938 C 73.691406 9.734375 74.351562 9.015625 75.023438 8.289062 Z M 75.023438 8.289062 " fill-opacity="1" fill-rule="evenodd"/><path fill="#6666ff" d="M 75.664062 8.289062 C 75.722656 8.289062 75.78125 8.289062 75.855469 8.289062 C 75.179688 9.015625 74.519531 9.734375 73.847656 10.460938 C 73.789062 10.460938 73.726562 10.460938 73.65625 10.460938 C 74.328125 9.734375 74.988281 9.015625 75.664062 8.289062 Z M 75.664062 8.289062 " fill-opacity="1" fill-rule="evenodd"/></g><g clip-path="url(#fb01683ea1)"><path fill="#6666ff" d="M 76.285156 8.289062 C 76.335938 8.289062 76.382812 8.289062 76.429688 8.289062 C 75.757812 9.015625 75.097656 9.734375 74.425781 10.460938 C 74.375 10.460938 74.328125 10.460938 74.28125 10.460938 C 74.953125 9.734375 75.613281 9.015625 76.285156 8.289062 Z M 76.285156 8.289062 " fill-opacity="1" fill-rule="evenodd"/><path fill="#6666ff" d="M 76.976562 8.28125 L 76.886719 8.28125 L 74.871094 10.472656 L 74.960938 10.472656 Z M 76.976562 8.28125 " fill-opacity="1" fill-rule="evenodd"/></g></svg>